<mxfile host="app.diagrams.net" modified="2023-06-01T09:20:28.661Z" agent="Mozilla/5.0 (Windows NT 10.0; Win64; x64) AppleWebKit/537.36 (KHTML, like Gecko) Chrome/113.0.0.0 Safari/537.36" etag="hV7_PDahwQF-iYKT5tP9" version="21.1.9" type="device">
  <diagram name="第 1 页" id="V1W0sLbI2GgZeyCbVdQ1">
    <mxGraphModel dx="1194" dy="738" grid="1" gridSize="10" guides="1" tooltips="1" connect="1" arrows="1" fold="1" page="1" pageScale="1" pageWidth="827" pageHeight="1169" math="0" shadow="0">
      <root>
        <mxCell id="0" />
        <mxCell id="1" parent="0" />
        <mxCell id="WFYV-QFJoavZbaiG5XtV-16" style="edgeStyle=orthogonalEdgeStyle;rounded=0;orthogonalLoop=1;jettySize=auto;html=1;endArrow=open;endFill=0;endSize=10;exitX=0.5;exitY=1;exitDx=0;exitDy=0;entryX=0.5;entryY=0;entryDx=0;entryDy=0;" parent="1" source="WFYV-QFJoavZbaiG5XtV-17" target="SH1XidaKn7-3x0E3D8yf-2" edge="1">
          <mxGeometry relative="1" as="geometry">
            <mxPoint x="347" y="240" as="targetPoint" />
          </mxGeometry>
        </mxCell>
        <mxCell id="SH1XidaKn7-3x0E3D8yf-4" value="" style="swimlane;startSize=0;" vertex="1" parent="1">
          <mxGeometry x="103" y="130" width="460" height="200" as="geometry" />
        </mxCell>
        <mxCell id="SH1XidaKn7-3x0E3D8yf-1" value="" style="html=1;" vertex="1" parent="SH1XidaKn7-3x0E3D8yf-4">
          <mxGeometry x="40" y="120" width="87" height="37.25" as="geometry" />
        </mxCell>
        <mxCell id="SH1XidaKn7-3x0E3D8yf-2" value="" style="html=1;" vertex="1" parent="SH1XidaKn7-3x0E3D8yf-4">
          <mxGeometry x="200" y="120" width="87" height="37.25" as="geometry" />
        </mxCell>
        <mxCell id="SH1XidaKn7-3x0E3D8yf-3" value="" style="html=1;" vertex="1" parent="SH1XidaKn7-3x0E3D8yf-4">
          <mxGeometry x="350" y="120" width="87" height="37.25" as="geometry" />
        </mxCell>
        <mxCell id="SH1XidaKn7-3x0E3D8yf-6" style="rounded=0;orthogonalLoop=1;jettySize=auto;html=1;exitX=0.25;exitY=1;exitDx=0;exitDy=0;endArrow=open;endFill=0;" edge="1" parent="1" source="WFYV-QFJoavZbaiG5XtV-17" target="SH1XidaKn7-3x0E3D8yf-1">
          <mxGeometry relative="1" as="geometry" />
        </mxCell>
        <mxCell id="SH1XidaKn7-3x0E3D8yf-7" style="rounded=0;orthogonalLoop=1;jettySize=auto;html=1;exitX=0.75;exitY=1;exitDx=0;exitDy=0;endArrow=open;endFill=0;" edge="1" parent="1" source="WFYV-QFJoavZbaiG5XtV-17" target="SH1XidaKn7-3x0E3D8yf-3">
          <mxGeometry relative="1" as="geometry" />
        </mxCell>
        <mxCell id="WFYV-QFJoavZbaiG5XtV-17" value="Facade" style="html=1;" parent="1" vertex="1">
          <mxGeometry x="303" y="110" width="87" height="37.25" as="geometry" />
        </mxCell>
      </root>
    </mxGraphModel>
  </diagram>
</mxfile>
